<svg width="444" height="454" viewBox="0 0 444 454" fill="none" xmlns="http://www.w3.org/2000/svg">
<g filter="url(#filter0_d_47_9)">
<path d="M4.18009 201.899C3.65791 113.252 3.39682 68.9279 28.081 39.2089C31.9842 34.5096 36.2864 30.1564 40.9395 26.1981C70.3656 1.16553 114.689 0.904435 203.337 0.382253L237.656 0.180093C326.303 -0.34209 370.627 -0.603181 400.346 24.081C405.045 27.9842 409.398 32.2864 413.357 36.9395C438.389 66.3656 438.65 110.689 439.173 199.337L439.434 243.656C439.956 332.303 440.217 376.627 415.533 406.346C411.63 411.045 407.327 415.398 402.674 419.357C373.248 444.389 328.924 444.65 240.277 445.172L205.958 445.375C117.311 445.897 72.9869 446.158 43.2678 421.474C38.5685 417.57 34.2153 413.268 30.257 408.615C5.22443 379.189 4.96334 334.865 4.44116 246.218L4.18009 201.899Z" fill="#D9D9D9"/>
</g>
<defs>
<filter id="filter0_d_47_9" x="0.0436401" y="0.0436096" width="443.526" height="453.467" filterUnits="userSpaceOnUse" color-interpolation-filters="sRGB">
<feFlood flood-opacity="0" result="BackgroundImageFix"/>
<feColorMatrix in="SourceAlpha" type="matrix" values="0 0 0 0 0 0 0 0 0 0 0 0 0 0 0 0 0 0 127 0" result="hardAlpha"/>
<feOffset dy="4"/>
<feGaussianBlur stdDeviation="2"/>
<feComposite in2="hardAlpha" operator="out"/>
<feColorMatrix type="matrix" values="0 0 0 0 0 0 0 0 0 0 0 0 0 0 0 0 0 0 0.25 0"/>
<feBlend mode="normal" in2="BackgroundImageFix" result="effect1_dropShadow_47_9"/>
<feBlend mode="normal" in="SourceGraphic" in2="effect1_dropShadow_47_9" result="shape"/>
</filter>
</defs>
</svg>
